# xmcd
#
# Track frame offsets: 
#        150
#        11286
#        29179
#        43051
#        54349
#        72426
#        80115
#        91275
#        111057
#        130568
#        144562
#        163327
#        173805
#
# Disc length: 2448 seconds
#
# Revision: 0
# Processed by: cddbd v1.5.2PL0 Copyright (c) Steve Scherf et al.
# Submitted via: ExactAudioCopyFreeDBPlugin 1.0
#
DISCID=b1098e0d
DTITLE=Laurie Lewis and Kathy Kallick - Together
DYEAR=1991
DGENRE=Country
TTITLE0=Going Up on the Mountain
TTITLE1=Just Like Rain
TTITLE2=Is the Blue Moon Still Shining?
TTITLE3=Don't You See That Train?
TTITLE4=Hideaway
TTITLE5=The Touch of the Master's Hand
TTITLE6=Lost John
TTITLE7=Maverick
TTITLE8=That Dawn the Day You Left Me
TTITLE9=Count Your Blessings
TTITLE10=Little Annie
TTITLE11=Don't Leave Your Little Girl All Alone
TTITLE12=Gonna Lay Down My Old Guitar
EXTD=
EXTT0=
EXTT1=
EXTT2=
EXTT3=
EXTT4=
EXTT5=
EXTT6=
EXTT7=
EXTT8=
EXTT9=
EXTT10=
EXTT11=
EXTT12=
PLAYORDER=
